<?xml version="1.0" standalone="no"?>
<!DOCTYPE svg PUBLIC "-//W3C//DTD SVG 20010904//EN"
 "http://www.w3.org/TR/2001/REC-SVG-20010904/DTD/svg10.dtd">
<svg version="1.0" xmlns="http://www.w3.org/2000/svg"
 width="556.000000pt" height="160.000000pt" viewBox="0 0 556.000000 160.000000"
 preserveAspectRatio="xMidYMid meet">

<g transform="translate(0.000000,160.000000) scale(0.100000,-0.100000)"
fill="#000000" stroke="none">
<path d="M716 1431 c-3 -5 -23 -12 -43 -16 -145 -27 -312 -184 -358 -335 -9
-30 -21 -63 -26 -72 -12 -23 -12 -323 0 -346 5 -9 17 -42 26 -72 43 -142 183
-282 326 -325 30 -9 62 -21 71 -26 23 -12 323 -12 346 0 9 5 46 19 81 32 157
55 285 203 327 377 17 74 17 300 0 374 -42 174 -170 322 -327 377 -35 13 -72
27 -81 32 -23 12 -335 12 -342 0z m284 -313 c70 -42 112 -107 118 -183 6 -67
-28 -145 -111 -255 -41 -54 -57 -84 -57 -106 0 -43 -19 -56 -77 -52 -48 3 -48
3 -53 43 -4 28 -22 62 -60 112 -63 82 -109 167 -117 218 -9 53 15 120 60 172
52 59 105 82 182 83 51 0 70 -5 115 -32z"/>
<path d="M851 1087 c-42 -52 -53 -201 -22 -302 18 -57 20 -60 53 -63 l35 -3
18 67 c21 78 23 199 4 247 -24 62 -62 85 -88 54z"/>
<path d="M743 1048 c-60 -66 -68 -139 -24 -226 31 -62 66 -110 74 -102 3 3 -3
37 -14 75 -23 82 -24 162 -4 228 16 54 4 64 -32 25z"/>
<path d="M985 1048 c17 -50 17 -194 1 -248 -22 -74 -21 -88 3 -66 39 36 81
131 81 186 0 57 -10 81 -48 123 -31 33 -47 35 -37 5z"/>
<path d="M840 655 c0 -13 9 -16 43 -13 23 2 42 8 42 13 0 6 -19 11 -42 13 -34
3 -43 0 -43 -13z"/>
<path d="M867 584 c-9 -10 2 -24 19 -24 8 0 14 7 14 15 0 15 -21 21 -33 9z"/>
<path d="M3577 1332 c-46 -50 13 -114 74 -82 13 7 19 21 19 45 0 52 -59 75
-93 37z"/>
<path d="M2026 1325 c-61 -21 -88 -46 -119 -106 -38 -73 -35 -154 9 -225 95
-154 349 -129 399 39 27 90 31 87 -100 87 l-115 0 0 -40 0 -40 60 0 60 0 -15
-24 c-55 -83 -197 -40 -226 68 -22 82 48 176 131 176 31 0 56 -11 112 -52 15
-11 22 -8 48 17 l30 29 -27 28 c-49 52 -166 72 -247 43z"/>
<path d="M3130 1323 c0 -4 32 -101 72 -215 l73 -208 45 0 45 0 73 204 c39 113
72 210 72 216 0 7 -17 10 -46 8 l-47 -3 -47 -135 c-55 -155 -45 -157 -108 25
l-39 110 -46 3 c-26 2 -47 -1 -47 -5z"/>
<path d="M3873 1216 c-18 -8 -33 -11 -33 -6 0 6 -20 10 -45 10 l-45 0 0 -215
0 -215 45 0 45 0 0 61 c0 58 1 60 23 52 44 -16 120 -9 153 14 85 61 86 225 3
286 -35 25 -105 31 -146 13z m92 -92 c37 -40 30 -107 -14 -141 -47 -36 -111 9
-111 77 0 79 76 117 125 64z"/>
<path d="M2411 1113 c0 -176 29 -218 145 -218 59 0 67 3 96 33 l33 32 3 130 4
130 -46 0 -46 0 0 -109 c0 -118 -10 -145 -53 -139 -34 5 -47 45 -47 151 l0 97
-45 0 -45 0 1 -107z"/>
<path d="M2750 1210 c0 -6 25 -70 56 -144 l55 -133 -30 -68 c-17 -37 -31 -69
-31 -71 0 -2 21 -4 48 -4 l47 1 93 203 c50 112 92 208 92 215 0 6 -18 11 -43
11 l-44 0 -38 -85 c-21 -48 -41 -82 -45 -78 -5 4 -22 43 -40 86 l-32 77 -44 0
c-24 0 -44 -5 -44 -10z"/>
<path d="M3570 1060 l0 -160 45 0 45 0 0 160 0 160 -45 0 -45 0 0 -160z"/>
<path d="M2817 683 c-14 -13 -6 -33 13 -33 13 0 20 7 20 20 0 19 -20 27 -33
13z"/>
<path d="M4677 683 c-14 -13 -6 -33 13 -33 13 0 20 7 20 20 0 19 -20 27 -33
13z"/>
<path d="M1938 664 c-41 -22 -58 -63 -58 -140 0 -62 2 -68 34 -100 27 -27 42
-34 75 -34 48 0 91 18 91 38 0 10 -5 12 -17 6 -10 -4 -36 -9 -58 -12 -33 -3
-44 1 -65 23 -21 23 -25 36 -25 91 0 56 3 67 27 91 20 20 37 27 64 26 20 -1
41 -6 47 -12 15 -15 27 -14 27 4 0 34 -91 47 -142 19z"/>
<path d="M3872 664 c-19 -13 -22 -24 -20 -57 3 -35 8 -45 37 -62 19 -11 47
-32 63 -47 25 -23 27 -31 18 -48 -19 -35 -51 -44 -93 -26 -31 13 -37 13 -37 1
0 -21 33 -35 80 -35 81 0 120 83 64 135 -15 14 -32 25 -39 25 -21 0 -65 41
-65 60 0 30 42 53 74 40 35 -13 36 -13 36 4 0 29 -81 36 -118 10z"/>
<path d="M2147 582 c-45 -49 -45 -137 0 -172 31 -24 90 -26 120 -5 49 34 51
159 3 185 -31 17 -105 12 -123 -8z m108 -22 c28 -31 25 -108 -4 -132 -13 -10
-31 -18 -41 -18 -10 0 -28 8 -41 18 -29 24 -32 101 -4 132 23 26 67 26 90 0z"/>
<path d="M2380 495 c0 -87 3 -105 15 -105 12 0 15 15 15 73 0 65 3 76 25 97
21 20 28 22 50 12 24 -11 25 -16 25 -97 0 -69 3 -85 15 -85 22 0 22 172 -1
194 -20 21 -73 20 -96 -1 -17 -15 -18 -15 -18 0 0 10 -7 17 -15 17 -12 0 -15
-18 -15 -105z"/>
<path d="M2631 579 c-26 -28 -34 -80 -21 -129 12 -44 33 -60 79 -60 42 0 61 9
61 30 0 17 -2 17 -30 3 -28 -13 -33 -13 -54 0 -39 26 -43 99 -8 140 17 20 53
22 70 5 15 -15 26 -4 19 17 -10 24 -91 20 -116 -6z"/>
<path d="M2820 495 c0 -87 3 -105 15 -105 12 0 15 18 15 105 0 87 -3 105 -15
105 -12 0 -15 -18 -15 -105z"/>
<path d="M2930 575 c-20 -21 -24 -37 -24 -82 0 -48 3 -58 27 -79 39 -34 137
-33 137 1 0 10 -7 11 -35 2 -25 -7 -42 -7 -60 1 -25 11 -47 49 -38 65 2 4 35
7 74 7 l69 0 0 33 c0 49 -31 77 -84 77 -33 0 -48 -6 -66 -25z m102 -12 c10 -9
18 -24 18 -35 0 -15 -8 -18 -55 -18 -60 0 -71 15 -38 52 20 22 51 23 75 1z"/>
<path d="M3150 495 c0 -87 3 -105 15 -105 12 0 15 15 15 74 0 68 2 76 26 95
14 11 32 17 40 14 8 -3 14 1 14 11 0 21 -43 21 -64 0 -15 -14 -16 -14 -16 0 0
9 -7 16 -15 16 -12 0 -15 -18 -15 -105z"/>
<path d="M3315 580 c-12 -14 -16 -30 -13 -57 3 -21 0 -48 -5 -60 -7 -16 -6
-27 3 -38 10 -12 10 -19 2 -27 -7 -7 -12 -25 -12 -40 0 -36 36 -52 100 -45 44
5 80 33 80 63 0 28 -39 54 -79 54 -49 0 -71 8 -71 26 0 10 13 14 43 14 61 0
82 18 81 69 -1 29 3 41 12 41 8 0 14 5 14 10 0 6 -29 10 -68 10 -56 0 -72 -4
-87 -20z m96 -21 c16 -30 -3 -69 -34 -69 -29 0 -47 17 -47 45 0 45 60 63 81
24z m-4 -155 c31 -8 36 -31 13 -54 -25 -25 -61 -26 -89 -2 -20 16 -21 18 -6
40 16 22 41 27 82 16z"/>
<path d="M3530 575 c-20 -21 -24 -37 -24 -82 0 -48 3 -58 27 -79 39 -34 137
-33 137 1 0 10 -7 11 -35 2 -25 -7 -42 -7 -60 1 -25 11 -47 49 -38 65 2 4 35
7 74 7 l69 0 0 33 c0 49 -31 77 -84 77 -33 0 -48 -6 -66 -25z m102 -12 c10 -9
18 -24 18 -35 0 -15 -8 -18 -55 -18 -60 0 -71 15 -38 52 20 22 51 23 75 1z"/>
<path d="M4080 575 c-20 -21 -24 -37 -24 -82 0 -48 3 -58 27 -79 39 -34 137
-33 137 1 0 10 -7 11 -35 2 -25 -7 -42 -7 -60 1 -25 11 -47 49 -38 65 2 4 35
7 74 7 l69 0 0 33 c0 49 -31 77 -84 77 -33 0 -48 -6 -66 -25z m102 -12 c10 -9
18 -24 18 -35 0 -15 -8 -18 -55 -18 -60 0 -71 15 -38 52 20 22 51 23 75 1z"/>
<path d="M4300 495 c0 -87 3 -105 15 -105 12 0 15 15 15 74 0 68 2 76 26 95
14 11 32 17 40 14 8 -3 14 1 14 11 0 21 -43 21 -64 0 -15 -14 -16 -14 -16 0 0
9 -7 16 -15 16 -12 0 -15 -18 -15 -105z"/>
<path d="M4445 583 c3 -10 20 -57 37 -105 25 -73 34 -88 52 -88 18 0 27 16 58
105 33 92 35 105 20 105 -13 0 -25 -21 -46 -85 -15 -47 -29 -85 -31 -85 -2 0
-16 38 -31 85 -22 67 -32 85 -47 85 -14 0 -17 -5 -12 -17z"/>
<path d="M4680 495 c0 -87 3 -105 15 -105 12 0 15 18 15 105 0 87 -3 105 -15
105 -12 0 -15 -18 -15 -105z"/>
<path d="M4801 579 c-26 -28 -34 -80 -21 -129 12 -44 33 -60 79 -60 42 0 61 9
61 30 0 17 -2 17 -30 3 -28 -13 -33 -13 -54 0 -39 26 -43 99 -8 140 17 20 53
22 70 5 15 -15 26 -4 19 17 -10 24 -91 20 -116 -6z"/>
<path d="M4990 575 c-20 -21 -24 -37 -24 -82 0 -48 3 -58 27 -79 39 -34 137
-33 137 1 0 10 -7 11 -35 2 -25 -7 -42 -7 -60 1 -25 11 -47 49 -38 65 2 4 35
7 74 7 l69 0 0 33 c0 49 -31 77 -84 77 -33 0 -48 -6 -66 -25z m102 -12 c10 -9
18 -24 18 -35 0 -15 -8 -18 -55 -18 -60 0 -71 15 -38 52 20 22 51 23 75 1z"/>
<path d="M5212 588 c-6 -6 -12 -27 -12 -46 0 -30 5 -35 44 -53 50 -22 62 -41
39 -65 -16 -15 -38 -15 -75 1 -13 5 -18 3 -18 -8 0 -33 89 -38 120 -7 38 38
23 67 -59 112 -28 16 -31 20 -21 39 10 18 18 20 52 15 30 -5 39 -3 36 6 -6 17
-90 22 -106 6z"/>
</g>
</svg>
